<svg width="27" height="26" viewBox="0 0 27 26" fill="none" xmlns="http://www.w3.org/2000/svg">
<path fill-rule="evenodd" clip-rule="evenodd" d="M4.55443 4.31414C4.2686 4.31414 3.99448 4.42769 3.79237 4.6298C3.59025 4.83191 3.47671 5.10603 3.47671 5.39186V16.1691C3.47671 16.4549 3.59025 16.7291 3.79237 16.9312C3.99448 17.1333 4.2686 17.2468 4.55443 17.2468H5.63216C6.22737 17.2468 6.70988 17.7293 6.70988 18.3246C6.70988 18.9198 6.22737 19.4023 5.63216 19.4023H4.55443C3.69694 19.4023 2.87457 19.0616 2.26823 18.4553C1.6619 17.849 1.32126 17.0266 1.32126 16.1691V5.39186C1.32126 4.53437 1.6619 3.712 2.26823 3.10567C2.87457 2.49933 3.69694 2.15869 4.55443 2.15869H21.798C22.6555 2.15869 23.4779 2.49933 24.0842 3.10567C24.6906 3.712 25.0312 4.53437 25.0312 5.39186V16.1691C25.0312 17.0266 24.6906 17.849 24.0842 18.4553C23.4779 19.0616 22.6555 19.4023 21.798 19.4023H20.7203C20.1251 19.4023 19.6426 18.9198 19.6426 18.3246C19.6426 17.7293 20.1251 17.2468 20.7203 17.2468H21.798C22.0838 17.2468 22.358 17.1333 22.5601 16.9312C22.7622 16.7291 22.8757 16.4549 22.8757 16.1691V5.39186C22.8757 5.10603 22.7622 4.83191 22.5601 4.6298C22.358 4.42769 22.0839 4.31414 21.798 4.31414H4.55443Z" fill="#0074D9"/>
<path fill-rule="evenodd" clip-rule="evenodd" d="M13.1762 15.0914C13.4961 15.0914 13.7994 15.2335 14.0042 15.4792L19.3928 21.9456C19.6605 22.2668 19.7182 22.7139 19.5408 23.0926C19.3635 23.4713 18.983 23.7132 18.5649 23.7132H7.78761C7.36943 23.7132 6.989 23.4713 6.81163 23.0926C6.63426 22.7139 6.69197 22.2668 6.95968 21.9456L12.3483 15.4792C12.5531 15.2335 12.8564 15.0914 13.1762 15.0914ZM10.0886 21.5578H16.2639L13.1762 17.8526L10.0886 21.5578Z" fill="#0074D9"/>
</svg>
