<svg width="29" height="31" viewBox="0 0 29 31" fill="none" xmlns="http://www.w3.org/2000/svg">
<path fill-rule="evenodd" clip-rule="evenodd" d="M4.875 5.875C4.11561 5.875 3.5 6.49061 3.5 7.25V26.5C3.5 27.2594 4.11561 27.875 4.875 27.875H24.125C24.8844 27.875 25.5 27.2594 25.5 26.5V7.25C25.5 6.49061 24.8844 5.875 24.125 5.875H4.875ZM0.75 7.25C0.75 4.97183 2.59683 3.125 4.875 3.125H24.125C26.4032 3.125 28.25 4.97183 28.25 7.25V26.5C28.25 28.7782 26.4032 30.625 24.125 30.625H4.875C2.59683 30.625 0.75 28.7782 0.75 26.5V7.25Z" fill="#0074D9"/>
<path fill-rule="evenodd" clip-rule="evenodd" d="M20 0.375C20.7594 0.375 21.375 0.990608 21.375 1.75V7.25C21.375 8.00939 20.7594 8.625 20 8.625C19.2406 8.625 18.625 8.00939 18.625 7.25V1.75C18.625 0.990608 19.2406 0.375 20 0.375Z" fill="#0074D9"/>
<path fill-rule="evenodd" clip-rule="evenodd" d="M9 0.375C9.75939 0.375 10.375 0.990608 10.375 1.75V7.25C10.375 8.00939 9.75939 8.625 9 8.625C8.24061 8.625 7.625 8.00939 7.625 7.25V1.75C7.625 0.990608 8.24061 0.375 9 0.375Z" fill="#0074D9"/>
<path fill-rule="evenodd" clip-rule="evenodd" d="M0.75 12.75C0.75 11.9906 1.36561 11.375 2.125 11.375H26.875C27.6344 11.375 28.25 11.9906 28.25 12.75C28.25 13.5094 27.6344 14.125 26.875 14.125H2.125C1.36561 14.125 0.75 13.5094 0.75 12.75Z" fill="#0074D9"/>
</svg>
