<svg width="27" height="19" viewBox="0 0 27 19" fill="none" xmlns="http://www.w3.org/2000/svg">
<path fill-rule="evenodd" clip-rule="evenodd" d="M8.95326 0.0535013C10.4824 -0.102209 12.0267 0.107725 13.4588 0.665999C14.8909 1.22427 16.1698 2.1149 17.1901 3.26447C18.023 4.20282 18.664 5.29176 19.0805 6.46964H19.643C21.1272 6.47138 22.5656 6.98366 23.7168 7.92047C24.868 8.85729 25.6619 10.1616 25.9653 11.6145C26.2686 13.0674 26.0628 14.5804 25.3826 15.8996C24.7024 17.2187 23.5891 18.2637 22.2295 18.8592C21.6843 19.0979 21.0488 18.8495 20.81 18.3043C20.5712 17.7591 20.8196 17.1235 21.3648 16.8848C22.2712 16.4878 23.0134 15.7911 23.4669 14.9117C23.9204 14.0323 24.0575 13.0236 23.8553 12.055C23.6531 11.0864 23.1238 10.2169 22.3564 9.59231C21.589 8.96786 20.6302 8.62635 19.6409 8.62509C19.6407 8.62509 19.641 8.62509 19.6409 8.62509H18.2838C17.7924 8.62509 17.3632 8.29265 17.2403 7.81683C16.9414 6.65931 16.3716 5.5894 15.5781 4.69528C14.7845 3.80117 13.7898 3.10846 12.6759 2.67425C11.5621 2.24004 10.361 2.07675 9.17161 2.19786C7.98226 2.31897 6.83873 2.721 5.83526 3.37081C4.83179 4.02063 3.99711 4.89962 3.40004 5.93534C2.80296 6.97106 2.46058 8.13385 2.40112 9.32786C2.34165 10.5219 2.5668 11.7129 3.05801 12.8029C3.54922 13.8928 4.29242 14.8504 5.22636 15.5967C5.69135 15.9682 5.76708 16.6464 5.39551 17.1114C5.02394 17.5764 4.34578 17.6521 3.88079 17.2805C2.68001 16.321 1.72447 15.0898 1.09291 13.6885C0.461358 12.2872 0.171879 10.7558 0.248336 9.22065C0.324794 7.68548 0.764998 6.19047 1.53267 4.85883C2.30033 3.52719 3.37348 2.39706 4.66366 1.56158C5.95383 0.726106 7.4241 0.209211 8.95326 0.0535013Z" fill="#0074D9"/>
</svg>
