<svg width="20" height="24" viewBox="0 0 20 24" fill="none" xmlns="http://www.w3.org/2000/svg">
<path fill-rule="evenodd" clip-rule="evenodd" d="M10.2268 0.869812C10.5133 0.869685 10.7881 0.983433 10.9906 1.186L17.1006 7.29598C17.1007 7.29607 17.1005 7.2959 17.1006 7.29598C18.4599 8.65448 19.3861 10.3858 19.7614 12.2706C20.1368 14.1555 19.9448 16.1093 19.2096 17.8851C18.4744 19.6608 17.2291 21.1786 15.6312 22.2465C14.0333 23.3143 12.1546 23.8843 10.2327 23.8843C8.31078 23.8843 6.43206 23.3143 4.83415 22.2465C3.23624 21.1786 1.99093 19.6608 1.25574 17.8851C0.520553 16.1093 0.328518 14.1555 0.703925 12.2706C1.07927 10.386 2.00502 8.65507 3.3641 7.29663C3.36431 7.29641 3.36388 7.29684 3.3641 7.29663L9.46325 1.18668C9.66564 0.983929 9.94033 0.869939 10.2268 0.869812ZM10.228 3.47674L4.89095 8.82319C3.83362 9.87983 3.11341 11.2263 2.82143 12.6923C2.52944 14.1583 2.6788 15.678 3.25062 17.0591C3.82243 18.4403 4.791 19.6208 6.03382 20.4513C7.27664 21.2819 8.73787 21.7252 10.2327 21.7252C11.7275 21.7252 13.1887 21.2819 14.4315 20.4513C15.6744 19.6208 16.6429 18.4403 17.2147 17.0591C17.7866 15.678 17.9359 14.1583 17.6439 12.6923C17.3519 11.2263 16.6317 9.87983 15.5744 8.82319L10.228 3.47674Z" fill="#0074D9"/>
</svg>
