<svg width="25" height="24" viewBox="0 0 25 24" fill="none" xmlns="http://www.w3.org/2000/svg">
<path fill-rule="evenodd" clip-rule="evenodd" d="M21.4058 2.57643C21.1433 2.3511 20.8072 2.23 20.4613 2.23611L20.4422 2.23628H18.6424V11.9358H20.4422L20.4613 11.936C20.8072 11.9421 21.1433 11.821 21.4058 11.5957C21.6525 11.3839 21.8181 11.0939 21.8756 10.7752V3.39685C21.8181 3.07814 21.6525 2.78819 21.4058 2.57643ZM16.487 12.7848L12.5987 21.5334C12.2739 21.4297 11.9752 21.2496 11.7297 21.004C11.3255 20.5998 11.0984 20.0515 11.0984 19.4799V15.169C11.0984 14.5738 10.6159 14.0913 10.0206 14.0913H3.92073L3.90852 14.0913C3.7523 14.0931 3.59757 14.0609 3.45503 13.9969C3.3125 13.9329 3.18558 13.8387 3.08306 13.7208C2.98055 13.603 2.90489 13.4642 2.86133 13.3141C2.81783 13.1643 2.80738 13.0068 2.83071 12.8526C2.83067 12.8528 2.83074 12.8523 2.83071 12.8526L4.31808 3.15228C4.35705 2.89529 4.48759 2.66105 4.68564 2.49271C4.88368 2.32437 5.1359 2.23328 5.3958 2.23621L16.487 2.23628V12.7848ZM20.4336 0.0808341C21.3039 0.0679732 22.1491 0.373788 22.8097 0.940882C23.473 1.51023 23.9042 2.3033 24.0213 3.16955C24.0278 3.21743 24.0311 3.26569 24.0311 3.31401V10.8581C24.0311 10.9064 24.0278 10.9547 24.0213 11.0025C23.9042 11.8688 23.473 12.6619 22.8097 13.2312C22.1491 13.7983 21.3039 14.1041 20.4336 14.0913H18.2651L14.2387 23.1508C14.0657 23.54 13.6797 23.7908 13.2538 23.7908C12.1105 23.7908 11.014 23.3366 10.2056 22.5281C9.39711 21.7197 8.94292 20.6232 8.94292 19.4799V16.2467H3.92624C3.45985 16.251 2.99802 16.1544 2.57246 15.9634C2.14486 15.7715 1.7641 15.4889 1.45655 15.1352C1.149 14.7815 0.922031 14.3652 0.791355 13.9151C0.660679 13.465 0.629425 12.9919 0.699759 12.5285L2.187 2.8291C2.18705 2.82878 2.18695 2.82942 2.187 2.8291C2.3041 2.05852 2.69577 1.3552 3.28966 0.850388C3.8821 0.346816 4.63611 0.073657 5.41346 0.0808341H20.4336Z" fill="#0074D9"/>
</svg>
