<svg width="24" height="24" viewBox="0 0 24 24" fill="none" xmlns="http://www.w3.org/2000/svg">
<path fill-rule="evenodd" clip-rule="evenodd" d="M10.1612 0.766101C10.3345 0.376246 10.7211 0.125 11.1477 0.125C12.293 0.125 13.3913 0.57995 14.2012 1.38977C15.011 2.19958 15.4659 3.29793 15.4659 4.44318V7.68182H20.4911C20.9583 7.6775 21.4209 7.7743 21.8471 7.96562C22.2755 8.15786 22.6569 8.44092 22.9649 8.79519C23.273 9.14947 23.5004 9.56648 23.6313 10.0174C23.7622 10.4682 23.7935 10.9422 23.723 11.4063L22.2333 21.1221C22.2332 21.1224 22.2333 21.1218 22.2333 21.1221C22.116 21.894 21.7237 22.5985 21.1287 23.1041C20.5353 23.6086 19.7799 23.8822 19.0012 23.875H3.59092C2.73198 23.875 1.90822 23.5338 1.30086 22.9264C0.693494 22.3191 0.352282 21.4953 0.352282 20.6364V13.0795C0.352282 12.2206 0.693494 11.3968 1.30086 10.7895C1.90822 10.1821 2.73198 9.84091 3.59092 9.84091H6.12799L10.1612 0.766101ZM7.9091 11.1496L11.8039 2.38621C12.1293 2.49001 12.4285 2.67051 12.6744 2.91647C13.0794 3.32138 13.3068 3.87056 13.3068 4.44318V8.76136C13.3068 9.35758 13.7902 9.84091 14.3864 9.84091H20.4966L20.5088 9.84084C20.6653 9.83907 20.8203 9.87134 20.9631 9.93542C21.1059 9.9995 21.233 10.0939 21.3357 10.2119C21.4384 10.33 21.5142 10.469 21.5578 10.6193C21.6014 10.7695 21.6118 10.9273 21.5884 11.0819C21.5885 11.0817 21.5884 11.082 21.5884 11.0819L20.0986 20.7984C20.0595 21.0558 19.9288 21.2904 19.7304 21.459C19.532 21.6277 19.2794 21.7189 19.019 21.716L7.9091 21.7159V11.1496ZM5.75001 21.7159V12H3.59092C3.30461 12 3.03002 12.1137 2.82756 12.3162C2.62511 12.5186 2.51137 12.7932 2.51137 13.0795V20.6364C2.51137 20.9227 2.62511 21.1973 2.82756 21.3997C3.03002 21.6022 3.30461 21.7159 3.59092 21.7159H5.75001Z" fill="#0074D9"/>
</svg>
